
<svg xmlns="http://www.w3.org/2000/svg" version="1.1" xmlns:xlink="http://www.w3.org/1999/xlink" preserveAspectRatio="none" x="0px" y="0px" width="1000px" height="1000px" viewBox="0 0 1000 1000">
<defs>
<linearGradient id="Gradient_1" gradientUnits="userSpaceOnUse" x1="108.72499999999997" y1="496.2" x2="887.375" y2="496.2" spreadMethod="pad">
<stop  offset="0%" stop-color="#00195E"/>

<stop  offset="100%" stop-color="#14BC8C"/>
</linearGradient>

<linearGradient id="Gradient_2" gradientUnits="userSpaceOnUse" x1="208.925" y1="592.3625" x2="755.075" y2="337.03749999999997" spreadMethod="pad">
<stop  offset="0%" stop-color="#FF173D"/>

<stop  offset="100%" stop-color="#FF5F0F"/>
</linearGradient>

<g id="Layer4_0_FILL">
<path fill="url(#Gradient_1)" stroke="none" d="
M 887.4 721
L 887.4 271.4 498.05 46.6 108.75 271.4 108.75 721 498.1 945.8 887.4 721 Z"/>
</g>

<g id="Layer3_0_FILL">
<path fill="#000033" fill-opacity="0.996078431372549" stroke="none" d="
M 823.9 689.55
L 825.05 312.75 496.15 123.35 170.35 312.75 171.5 689.55 497.7 876.6 823.9 689.55 Z"/>
</g>

<g id="Layer2_0_FILL">
<path fill="#000033" fill-opacity="0.996078431372549" stroke="none" d="
M 746.85 91.2
Q 743.45 92.15 740.2 93.1 737.9 93.8 735.65 94.55 713.2 102.05 692.85 111.25 672.55 120.4 652.85 130.25 642.9 135.25 633.55 140.7 614.85 151.7 597 163.4 579.25 175.1 563.85 189.2 553.65 198.5 543.85 208.2 541.6 209.95 538.5 207.7 537.85 207.2 537 206.85 529.2 203.85 519.95 201.85 519.35 201.7 518.75 201.55 509.05 199.45 497.7 199.1 486.35 199.45 476.65 201.55 476.05 201.7 475.45 201.85 466.2 203.85 458.4 206.85 457.55 207.2 456.9 207.7 453.8 209.95 451.55 208.2 441.75 198.5 431.55 189.2 416.15 175.1 398.4 163.4 380.55 151.7 361.85 140.7 352.5 135.25 342.55 130.25 322.85 120.4 302.55 111.25 282.2 102.05 259.75 94.55 257.5 93.8 255.2 93.1 251.95 92.15 248.55 91.2 248.2 92.15 247.9 93.1 241.25 111.7 236.3 132.15 235.55 135.2 234.85 138.25 231.3 153.45 228.25 168.95 225.85 184.95 223.6 200.95 219.55 229.5 217.55 258.2
L 216.7 273.75
Q 216.7 274.5 216.7 275.2 216.8 282.45 217.95 289.15 218.05 289.7 218.1 290.25 218.75 297.5 220.5 303.2 221.8 307.45 223.1 312.05 229.4 334.85 241.35 352.35 251.4 367.05 263.7 379.45 266.05 381.85 268.55 384.2 269.05 384.7 269.65 384.8 273.55 385.65 271.55 387.2 259.8 394.45 249.3 402.9 240.95 409.65 233.7 417.35 219.4 432.55 209.55 452.2 208.8 457.45 211.05 459.7
L 211.65 459.3
Q 220.6 453.25 230.65 448.45 235.8 445.95 241.4 443.85 249.2 440.85 258.4 438.65 266.15 436.8 275.55 435.95 278.55 435.7 281.55 435.55 288.05 435.2 294.55 435.2 295.05 435.2 295.55 435.2 276.75 444.4 259.6 455.3 256.3 457.45 253.2 459.7 236.05 472.2 222.55 488.2 209.05 504.2 198.6 523.25 188.15 542.3 182.2 566.1 182.05 566.7 182.05 567.15 182.25 570.9 180.55 572.2 180.55 574.7 180.55 577.2 180.55 577.7 180.55 578.2 180.05 578.2 179.55 578.2 179.55 578.7 179.55 579.2 179.55 579.7 179.55 580.2 179.55 585.2 179.55 590.2 179.55 590.7 179.55 591.2 179.05 591.2 178.55 591.2 178.55 593.2 179 595.1 179.05 595.2 179.55 595.2 178.75 602.5 181.75 606.05 183.35 607.95 186.65 606.45 197.5 601.65 213.55 602.2 215.55 602.2 217.55 602.2 218.05 602.2 218.55 602.2 224.55 602.2 230.5 602.65 231.05 602.7 231.55 602.7 239.1 602.55 244.4 604.15 244.45 604.15 244.55 604.2 244.55 604.25 244.6 604.25
L 256.45 604.25 256.45 605.15
Q 257.25 605.15 258 605.15 268.2 605.35 277.5 606.65 281.9 607.25 286.15 608.1
L 288.6 608.1 288.6 608.6
Q 295.35 610.05 301.6 612 324.1 619.15 342.8 629.8 361.7 640.55 377.85 653.85 386.1 660.65 394.05 667.75 405.95 678.3 417.05 689.7 423.45 696.3 429.05 703.6 432.35 707.9 436.05 711.7 436.55 712.2 437.15 712.7 446.8 720.4 455.85 728.75 462.1 734.55 468.05 740.65 469.55 742.2 470.95 743.85 484.4 759.85 492.6 781.2 493.55 783.65 494 787.15 494.35 790.1 497.7 789.4 501.05 790.1 501.4 787.15 501.85 783.65 502.8 781.2 511 759.85 524.45 743.85 525.85 742.2 527.35 740.65 533.3 734.55 539.55 728.75 548.6 720.4 558.25 712.7 558.85 712.2 559.35 711.7 563.05 707.9 566.35 703.6 571.95 696.3 578.35 689.7 589.45 678.3 601.35 667.75 609.3 660.65 617.55 653.85 633.7 640.55 652.6 629.8 671.3 619.15 693.8 612 700.05 610.05 706.8 608.6
L 706.8 608.1 709.25 608.1
Q 713.5 607.25 717.9 606.65 727.2 605.35 737.4 605.15 738.15 605.15 738.95 605.15
L 738.95 604.25 750.8 604.25
Q 750.85 604.25 750.85 604.2 750.95 604.15 751 604.15 756.3 602.55 763.85 602.7 764.35 602.7 764.9 602.65 770.85 602.2 776.85 602.2 777.35 602.2 777.85 602.2 779.85 602.2 781.85 602.2 797.9 601.65 808.75 606.45 812.05 607.95 813.65 606.05 816.65 602.5 815.85 595.2 816.35 595.2 816.4 595.1 816.85 593.2 816.85 591.2 816.35 591.2 815.85 591.2 815.85 590.7 815.85 590.2 815.85 585.2 815.85 580.2 815.85 579.7 815.85 579.2 815.85 578.7 815.85 578.2 815.35 578.2 814.85 578.2 814.85 577.7 814.85 577.2 814.85 574.7 814.85 572.2 813.15 570.9 813.35 567.15 813.35 566.7 813.2 566.1 807.25 542.3 796.8 523.25 786.35 504.2 772.85 488.2 759.35 472.2 742.2 459.7 739.1 457.45 735.8 455.3 718.65 444.4 699.85 435.2 700.35 435.2 700.85 435.2 707.35 435.2 713.85 435.55 716.85 435.7 719.85 435.95 729.25 436.8 737 438.65 746.2 440.85 754 443.85 759.6 445.95 764.75 448.45 774.8 453.25 783.75 459.3
L 784.35 459.7
Q 786.6 457.45 785.85 452.2 776 432.55 761.7 417.35 754.45 409.65 746.1 402.9 735.6 394.45 723.85 387.2 721.85 385.65 725.75 384.8 726.35 384.7 726.85 384.2 729.35 381.85 731.7 379.45 744 367.05 754.05 352.35 766 334.85 772.3 312.05 773.6 307.45 774.9 303.2 776.65 297.5 777.3 290.25 777.35 289.7 777.45 289.15 778.6 282.45 778.7 275.2 778.7 274.5 778.7 273.75
L 777.85 258.2
Q 775.85 229.5 771.8 200.95 769.55 184.95 767.15 168.95 764.1 153.45 760.55 138.25 759.85 135.2 759.1 132.15 754.15 111.7 747.5 93.1 747.2 92.15 746.85 91.2
M 693 156.55
Q 698.35 154.2 703.55 151.6 708.35 149.2 714.85 148.2 719.15 154.9 722 163.15 725 171.55 727.85 180.2 731.55 191.5 734.25 204.1 734.35 204.7 734.4 205.25 736.2 218.85 737.95 232.2 738.85 238.7 739.35 246.15 740.1 255.95 739.5 267.2 738.8 281.15 736.8 294.2 735.75 300.65 734.5 306.35 733.05 312.95 731 318.25 724.75 334.1 714.85 346.2 705.9 336.65 699.3 324.5 698.85 323.7 698.4 322.9 693 313.05 688.15 302.5 683.6 292.45 682.4 278.25 682.35 277.7 682.3 277.15 681.85 269.7 682.55 262.25 683.85 249.2 687.7 238.15 691.6 227 696.8 217.2 697.85 215.2 699.3 213.6 701.85 210.75 699.85 208.2 689.3 218.15 681.3 230.5 680.85 231.2 680.35 231.85 667.95 248.8 661.4 271.35 660.85 273.2 660.25 275 659.3 277.65 658.85 281.2 657.25 294.6 658.4 310.15 659.45 323.6 663.5 334.35 663.85 335.2 664.25 336 673.75 355.85 690.25 368.7 690.85 369.2 691.4 369.7 697.75 375.2 705.15 379.45 707.1 380.55 709.15 381.6 719.35 386.7 728.15 392.8 737.1 399 745.4 405.75 761.55 419 773.95 436.15 780.2 444.85 783.85 456.2 781.35 455.2 779.15 453.75 778.35 453.2 777.55 452.75 774.15 450.9 770.95 449.05 764.35 445.2 756.75 442.45 751.5 440.55 746 438.7 735.1 434.95 720.9 433.75 720.35 433.7 719.8 433.65 715.85 433.2 711.95 432.6 705.9 431.65 697.85 431.55 693.1 431.45 690.85 433.2 693.9 435.65 697.75 437.4 717.95 446.6 735.65 458.55 753.2 470.35 767.4 485.7 781.55 501 792.45 519.85 795.1 524.45 797.3 529.45 801.95 540.1 806.25 551.05 810.35 561.7 812.25 575.15 812.35 575.7 812.35 576.2 812.1 580.95 813.85 583.2 813.85 583.7 813.85 584.2 814.4 595.25 812.85 604.2 810.3 603.75 809 602.05 805.35 597.2 800.25 593.65 793.55 589 786.55 584.7 781.75 581.8 776.1 579.55 771.05 577.5 764.85 576.25 758.55 575 751.9 573.85 739.35 571.7 723.85 572.4 716.85 572.7 709.85 573.2 707.05 573.4 704.8 573.75 691.5 575.85 679.85 579.25 668.3 582.7 657.75 587 647 591.35 637.8 597.15 628.55 602.9 619.75 609 615.85 611.7 612.05 614.5 595.15 627 580.85 642.2 566.6 657.45 554.15 674.4 547.75 683.15 539.85 690.25 539.35 690.7 538.95 691.25 532.6 699.95 522.05 704.65 520.85 705.2 519.65 705.6 513.7 707.55 507.9 709.45 505 710.35 500.85 710.3 499.25 710.25 497.7 710.35 496.15 710.25 494.55 710.3 490.4 710.35 487.5 709.45 481.7 707.55 475.75 705.6 474.55 705.2 473.35 704.65 462.8 699.95 456.45 691.25 456.05 690.7 455.55 690.25 447.65 683.15 441.25 674.4 428.8 657.45 414.55 642.2 400.25 627 383.35 614.5 379.55 611.7 375.65 609 366.85 602.9 357.6 597.15 348.4 591.35 337.65 587 327.1 582.7 315.55 579.25 303.9 575.85 290.6 573.75 288.35 573.4 285.55 573.2 278.55 572.7 271.55 572.4 256.05 571.7 243.5 573.85 236.85 575 230.55 576.25 224.35 577.5 219.3 579.55 213.65 581.8 208.85 584.7 201.85 589 195.15 593.65 190.05 597.2 186.4 602.05 185.1 603.75 182.55 604.2 181 595.25 181.55 584.2 181.55 583.7 181.55 583.2 183.3 580.95 183.05 576.2 183.05 575.7 183.15 575.15 185.05 561.7 189.15 551.05 193.45 540.1 198.1 529.45 200.3 524.45 202.95 519.85 213.85 501 228 485.7 242.2 470.35 259.75 458.55 277.45 446.6 297.65 437.4 301.5 435.65 304.55 433.2 302.3 431.45 297.55 431.55 289.5 431.65 283.45 432.6 279.55 433.2 275.6 433.65 275.05 433.7 274.5 433.75 260.3 434.95 249.4 438.7 243.9 440.55 238.65 442.45 231.05 445.2 224.45 449.05 221.25 450.9 217.85 452.75 217.05 453.2 216.25 453.75 214.05 455.2 211.55 456.2 215.2 444.85 221.45 436.15 233.85 419 250 405.75 258.3 399 267.25 392.8 276.05 386.7 286.25 381.6 288.3 380.55 290.25 379.45 297.65 375.2 304 369.7 304.55 369.2 305.15 368.7 321.65 355.85 331.15 336 331.55 335.2 331.9 334.35 335.95 323.6 337 310.15 338.15 294.6 336.55 281.2 336.1 277.65 335.15 275 334.55 273.2 334 271.35 327.45 248.8 315.05 231.85 314.55 231.2 314.1 230.5 306.1 218.15 295.55 208.2 293.55 210.75 296.1 213.6 297.55 215.2 298.6 217.2 303.8 227 307.7 238.15 311.55 249.2 312.85 262.25 313.55 269.7 313.1 277.15 313.05 277.7 313 278.25 311.8 292.45 307.25 302.5 302.4 313.05 297 322.9 296.55 323.7 296.1 324.5 289.5 336.65 280.55 346.2 270.65 334.1 264.4 318.25 262.35 312.95 260.9 306.35 259.65 300.65 258.6 294.2 256.6 281.15 255.9 267.2 255.3 255.95 256.05 246.15 256.55 238.7 257.45 232.2 259.2 218.85 261 205.25 261.05 204.7 261.15 204.1 263.85 191.5 267.55 180.2 270.4 171.55 273.4 163.15 276.25 154.9 280.55 148.2 287.05 149.2 291.85 151.6 297.05 154.2 302.4 156.55 322.75 165.5 340.7 176.95 358.75 188.5 374 202.7 374.55 203.2 375.1 203.7 390.85 217.4 404.25 233.45 408.8 238.9 413 244.6 415.2 247.55 417.15 250.5 419.2 253.6 422.55 255.2 424.15 256.3 427.8 254.75 438.45 250.1 450.6 247.4 462.95 244.6 476.55 243.2 486.85 242.1 497.7 241.6 508.55 242.1 518.85 243.2 532.45 244.6 544.8 247.4 556.95 250.1 567.6 254.75 571.25 256.3 572.85 255.2 576.2 253.6 578.25 250.5 580.2 247.55 582.4 244.6 586.6 238.9 591.15 233.45 604.55 217.4 620.3 203.7 620.85 203.2 621.4 202.7 636.65 188.5 654.7 176.95 672.65 165.5 693 156.55
M 465.1 660.7
Q 474.05 669.2 482.8 677.95 484.55 679.7 486.1 681.6 489.95 686.35 497.7 687.1 505.45 686.35 509.3 681.6 510.85 679.7 512.6 677.95 521.35 669.2 530.3 660.7 530.85 660.2 531.55 659.75 535.15 657.5 535.85 652.2 530.2 643.85 521 638.9 511.7 633.85 501.85 629.2 499.7 629.1 497.7 629.2 495.7 629.1 493.55 629.2 483.7 633.85 474.4 638.9 465.2 643.85 459.55 652.2 460.25 657.5 463.85 659.75 464.55 660.2 465.1 660.7
M 275.55 493.2
Q 276.05 493.7 276.6 493.75 279.35 494 281.6 493.6 291.55 491.7 303.55 492.4 331.2 494.05 352.5 502.35 357.8 504.45 362.8 506.65 380.7 514.55 394.7 526 403 532.75 410 540.7 423.85 556.4 434.35 575.3 437.05 580.2 439.2 585.35 439.55 586.2 439.95 587 449.95 606.3 455.9 630.1 456.05 630.7 456.15 631.25 456.9 635.35 458.7 638.1 459.05 638.7 459 639.15 458.45 643.3 461.55 643.2 461.55 620.2 461.75 597.2 461.95 567.3 459.6 540.2 459.35 537.4 458.95 535.15 456.65 522.1 452.6 511.2 444.6 489.65 429.85 474.9 415.1 460.15 391.65 453.85 391.05 453.7 390.5 453.6 377.15 451.6 361.55 452.2 347.05 452.7 335.55 456.25 332.55 457.2 329.5 458.1 306.8 464.95 290.7 478.4 282.55 485.2 275.55 493.2
M 665.9 458.1
Q 662.85 457.2 659.85 456.25 648.35 452.7 633.85 452.2 618.25 451.6 604.9 453.6 604.35 453.7 603.75 453.85 580.3 460.15 565.55 474.9 550.8 489.65 542.8 511.2 538.75 522.1 536.45 535.15 536.05 537.4 535.8 540.2 533.45 567.3 533.65 597.2 533.85 620.2 533.85 643.2 536.95 643.3 536.4 639.15 536.35 638.7 536.7 638.1 538.5 635.35 539.25 631.25 539.35 630.7 539.5 630.1 545.45 606.3 555.45 587 555.85 586.2 556.2 585.35 558.35 580.2 561.05 575.3 571.55 556.4 585.4 540.7 592.4 532.75 600.7 526 614.7 514.55 632.6 506.65 637.6 504.45 642.9 502.35 664.2 494.05 691.85 492.4 703.85 491.7 713.8 493.6 716.05 494 718.8 493.75 719.35 493.7 719.85 493.2 712.85 485.2 704.7 478.4 688.6 464.95 665.9 458.1 Z"/>
</g>

<g id="Layer1_0_FILL">
<path fill="url(#Gradient_2)" stroke="none" d="
M 744.85 609.2
Q 745.6 607 746.35 604.25
L 725.15 604.9
Q 718.3 605.5 711.5 606.65 676.3 613.15 646.15 632.7 601.6 661.55 563.9 699 536.65 726 515.2 757.35 505.05 772.15 498.85 789.2
L 497.6 792.15 496.55 789.2
Q 490.35 772.15 480.2 757.35 458.75 726 431.5 699 393.8 661.55 349.25 632.7 319.1 613.15 283.9 606.65 277.1 605.5 270.25 604.9
L 249.05 604.25
Q 249.8 607 250.55 609.2
L 254.9 625.6
Q 263 652.9 276.05 678.2 293.6 712.1 322.7 736.7 352.8 762.2 389.4 777.1 425.7 791.85 452.8 819.2 476.5 843.1 497.7 869.15 518.9 843.1 542.6 819.2 569.7 791.85 606 777.1 642.6 762.2 672.7 736.7 701.8 712.1 719.35 678.2 732.4 652.9 740.5 625.6
L 744.85 609.2
M 713.3 146.45
Q 711.6 147 709.9 147.6 708.4 148.2 706.8 148.75 702.2 150.55 697.85 152.8 690.15 156.7 682.5 160.4 666.8 168.35 652.2 177.75 643.2 183.55 634.85 190.2 622.25 200.3 610.25 211.05 601.9 218.25 594.8 226.55 589.9 232.2 585.15 238.15 579.1 245.75 573.85 254.2 573.55 254.15 573.25 254.15 557.2 247.5 537.3 244.7 537.05 244.65 536.8 244.6 535.3505859375 244.3953125 533.9 244.2 527.9 243.5 521.9 242.8 496.15 240.45 470.4 243.1 464.490234375 243.76796875 458.6 244.6 458.35 244.65 458.1 244.7 438.2 247.5 422.15 254.15 421.85 254.15 421.55 254.2 416.3 245.75 410.25 238.15 405.5 232.2 400.6 226.55 393.5 218.25 385.15 211.05 373.15 200.3 360.55 190.2 352.2 183.55 343.2 177.75 328.6 168.35 312.9 160.4 305.25 156.7 297.55 152.8 293.2 150.55 288.6 148.75 287 148.2 285.5 147.6 283.8 147 282.1 146.45 281.4 146.9 280.85 147.45 279.95 148.45 279.2 149.55 278.15 151.15 277.15 152.85 275.2 156.25 273.7 159.7 273.15 160.95 272.65 162.25 264.35 183.5 261.4 198.2 258.45 212.85 257.95 215.8 257.4 218.7 256.9 222.3 256.4 225.9 255.8 232.6 255.2 239.3 254.85 244.35 254.5 249.35 254.55 254.2 254.35 283.9 260.3 307.25 261.05 310.2 261.85 313.1 266.2 328.8 275.05 340.1 277.2 343.05 279.45 345.95 280 346.65 280.85 346.9
L 281.85 346.7
Q 282.3 346.4 283.75 344.6 285.15 342.75 287.35 340.1 289.25 337.9 290.9 335.45 298.4 324.5 304.05 311.75 307.25 304.25 309.75 296.6 312.3 288.75 313.45 280.55 314.65 271.65 313.9 262.75 313.2 254.25 311.45 246.15 308.65 234.9 304.2 225.9 302.25 222 300.05 218.5 298.05 215.25 299.55 213.2 308.65 224.1 316.7 236.1 328.55 253.7 334.6 277.2 336.15 283.15 336.75 290.2 337.5 298.15 337.2 303.25 336.4 318.05 332.25 329.1 332.05 329.7 331.85 330.3 330.05 336.2 327.3 341.05 324.95 345.1 322.2 348.95 309.8 365.95 291.5 377.1 289.55 378.3 287.65 379.45 280.2 384 272.75 388.5 268.05 391.35 263.5 394.4 227.65 416.05 212.85 453.25 212.7 453.6 213.35 454.25 228.1 449.1 243.1 443.05 256.35 437.65 270.45 435.5 280.95 433.85 292.55 433.4 297.05 433.2 301.5 433.65 302.05 433.7 302.55 434.2 299.05 435.2 295.8 436.7 275.8 445.95 258.35 457.95 240.85 470 227 485.6 225.55 487.2 224.1 488.8 212.35 501.85 203.3 517.5 195.35 530.95 189.85 545.7 179.2 574.5 181.55 605.2 192.95 594.65 207.7 586.35 212.85 583.85 219 581.65 232.65 576.8 239.5 575.8 240.05 575.7 240.65 575.6 253.35 573 268.55 572.85 276.45 572.8 282.65 573.6 296.45 575.3 308.45 578.65 314.05 580.2 319.65 581.85 342.65 588.6 360.6 600.1 378.6 611.65 394.5 625.25 410.4 638.85 424.15 654.55 425.55 656.2 426.95 657.9 433.65 666.1 440.1 674.55 446.65 683.15 453.6 691.15 467.25 707 492.65 710.65 495.15 711 497.7 711.2 500.25 711 502.75 710.65 528.15 707 541.8 691.15 548.75 683.15 555.3 674.55 561.75 666.1 568.45 657.9 569.85 656.2 571.25 654.55 585 638.85 600.9 625.25 616.8 611.65 634.8 600.1 652.75 588.6 675.75 581.85 681.35 580.2 686.95 578.65 698.95 575.3 712.75 573.6 718.95 572.8 726.85 572.85 742.05 573 754.75 575.6 755.35 575.7 755.9 575.8 762.75 576.8 776.4 581.65 782.55 583.85 787.7 586.35 802.45 594.65 813.85 605.2 816.2 574.5 805.55 545.7 800.05 530.95 792.1 517.5 783.05 501.85 771.3 488.8 769.85 487.2 768.4 485.6 754.55 470 737.05 457.95 719.6 445.95 699.6 436.7 696.35 435.2 692.85 434.2 693.35 433.7 693.9 433.65 698.35 433.2 702.85 433.4 714.45 433.85 724.95 435.5 739.05 437.65 752.3 443.05 767.3 449.1 782.05 454.25 782.7 453.6 782.55 453.25 767.75 416.05 731.9 394.4 727.35 391.35 722.65 388.5 715.2 384 707.75 379.45 705.85 378.3 703.9 377.1 685.6 365.95 673.2 348.95 670.45 345.1 668.1 341.05 665.35 336.2 663.55 330.3 663.35 329.7 663.15 329.1 659 318.05 658.2 303.25 657.9 298.15 658.65 290.2 659.25 283.15 660.8 277.2 666.85 253.7 678.7 236.1 686.75 224.1 695.85 213.2 697.35 215.25 695.35 218.5 693.15 222 691.2 225.9 686.75 234.9 683.95 246.15 682.2 254.25 681.5 262.75 680.75 271.65 681.95 280.55 683.1 288.75 685.65 296.6 688.15 304.25 691.35 311.75 697 324.5 704.5 335.45 706.15 337.9 708.05 340.1 710.25 342.75 711.65 344.6 713.1 346.4 713.55 346.7
L 714.55 346.9
Q 715.4 346.65 715.95 345.95 718.2 343.05 720.35 340.1 729.2 328.8 733.55 313.1 734.35 310.2 735.1 307.25 741.05 283.9 740.85 254.2 740.9 249.35 740.55 244.35 740.2 239.3 739.6 232.6 739 225.9 738.5 222.3 738 218.7 737.45 215.8 736.95 212.85 734 198.2 731.05 183.5 722.75 162.25 722.25 160.95 721.7 159.7 720.2 156.25 718.25 152.85 717.25 151.15 716.2 149.55 715.45 148.45 714.55 147.45 714 146.9 713.3 146.45
M 678.9 464.05
Q 681.85 465.2 684.6 466.7 703.55 477 717.85 492.2 717.35 492.7 716.85 492.7 715.85 492.7 714.8 492.55 712.35 492.2 710 491.6 705.95 490.6 699.85 490.75 670.6 491.45 648.8 499 643.1 500.95 637.95 503.35 627.75 508.1 617.95 513.4 598.9 523.75 584.7 539.1 570.55 554.4 560.25 573.9 550.15 593 543.15 615.3 542.85 616.2 542.5 617.05 540.2 622.05 538.85 628.2 537.5 634.35 536.45 639.55 534.85 629.2 534.85 619.2 534.85 589.7 535.35 560.2 535.35 559.7 535.35 559.2 535.75 544.1 538.6 531.35 541.2 519.55 545.45 508.4 547.4 503.25 549.9 498.2 552.35 493.2 555.4 488.9 567.6 471.45 587 461.55 592.5 458.75 598.55 456.7 603.7 455.05 609 453.8 615.2 452.35 621.5 451.85 628.2 451.75 634.75 452.25 641.4 452.85 647.8 454.3 654.7 456 661.6 457.9 669.45 460.3 678.9 464.05
M 278.55 492.7
Q 278.05 492.7 277.55 492.2 291.85 477 310.8 466.7 313.55 465.2 316.5 464.05 325.95 460.3 333.8 457.9 340.7 456 347.6 454.3 354 452.85 360.65 452.25 367.2 451.75 373.9 451.85 380.2 452.35 386.4 453.8 391.7 455.05 396.85 456.7 402.9 458.75 408.4 461.55 427.8 471.45 440 488.9 443.05 493.2 445.5 498.2 448 503.25 449.95 508.4 454.2 519.55 456.8 531.35 459.65 544.1 460.05 559.2 460.05 559.7 460.05 560.2 460.55 589.7 460.55 619.2 460.55 629.2 458.95 639.55 457.9 634.35 456.55 628.2 455.2 622.05 452.9 617.05 452.55 616.2 452.25 615.3 445.25 593 435.15 573.9 424.85 554.4 410.7 539.1 396.5 523.75 377.45 513.4 367.65 508.1 357.45 503.35 352.3 500.95 346.6 499 324.8 491.45 295.55 490.75 289.45 490.6 285.4 491.6 283.05 492.2 280.6 492.55 279.55 492.7 278.55 492.7
M 465 664.25
Q 463.650390625 662.309765625 462.1 658.95 460.5994140625 655.6462890625 460.55 652.2 461.7 650.5 462.8 649 469.05 640.5 478.7 636.15 487.85 632 497.7 629.65 507.55 632 516.7 636.15 526.35 640.5 532.6 649 533.7 650.5 534.85 652.2 534.7953125 655.6533203125 533.6 657.8 532.464453125 659.9919921875 530.8 663.2 529.1337890625 666.4015625 524.5 671.15 519.9068359375 675.9611328125 515 679.45 510.158203125 682.9857421875 506.5 684.5 502.8458984375 686.05390625 497.7 687.1 492.4806640625 686.2384765625 489.85 685.5 487.263671875 684.7619140625 481.35 680.9 475.44375 677.0931640625 470.9 671.65 466.3521484375 666.194140625 465 664.25 Z"/>
</g>

<g id="Layer0_0_FILL">
<path fill="#FDFCED" fill-opacity="0.9921568627450981" stroke="none" d="
M 703.55 514.7
Q 702.2 514 700.85 513.4 685.75 506.45 669.85 502.2 660.6 500.3 649.85 502.2 640.45 503.55 631.75 506.85 626.25 508.95 621 511.8 603.5 521.4 589.35 535.25 575.55 548.8 564.85 564.75 544.05 595.85 537.7 632.85 535.95 642.95 534.85 652.2 522.55 676.45 508.9 682.3 502.6 685 497.7 685.4 492.8 685 486.5 682.3 472.85 676.45 460.55 652.2 459.45 642.95 457.7 632.85 451.35 595.85 430.55 564.75 419.85 548.8 406.05 535.25 391.9 521.4 374.4 511.8 369.15 508.95 363.65 506.85 354.95 503.55 345.55 502.2 334.8 500.3 325.55 502.2 309.65 506.45 294.55 513.4 293.2 514 291.85 514.7 272.8 523.8 256.6 537.35 240.9 550.4 227.55 565.7 220.4 574.05 215.4 583
L 217.8 582.15
Q 233.35 576.15 252.05 573.85
L 254.8 573.5
Q 266.65 572.1 282.45 574.35
L 300 577.55
Q 325.8 583.3 349.95 595.5 384.85 613.2 410.95 642.35 424.6 657.65 437.05 673.95 448.15 688.35 461.75 700.3 470.7 708.2 489.25 712 493.4 712.85 497.7 712.9 502 712.85 506.15 712 524.7 708.2 533.65 700.3 547.25 688.35 558.35 673.95 570.8 657.65 584.45 642.35 610.55 613.2 645.45 595.5 669.6 583.3 695.4 577.55
L 712.95 574.35
Q 728.75 572.1 740.6 573.5
L 743.35 573.85
Q 762.05 576.15 777.6 582.15
L 780 583
Q 775 574.05 767.85 565.7 754.5 550.4 738.8 537.35 722.6 523.8 703.55 514.7 Z"/>
</g>

<path id="Layer4_0_1_STROKES" stroke="url(#Gradient_1)" stroke-width="88" stroke-linejoin="round" stroke-linecap="round" fill="none" d="
M 498.1 945.8
L 108.75 721 108.75 271.4 498.05 46.6 887.4 271.4 887.4 721 498.1 945.8 Z"/>

<path id="Layer3_0_1_STROKES" stroke="#000033" stroke-width="22" stroke-linejoin="round" stroke-linecap="round" fill="none" d="
M 170.35 312.75
L 171.5 689.55 497.7 876.6 823.9 689.55 825.05 312.75 496.15 123.35 170.35 312.75 Z"/>
</defs>

<g transform="matrix( 1, 0, 0, 1, 0,0) ">
<use xlink:href="#Layer4_0_FILL"/>

<use xlink:href="#Layer4_0_1_STROKES"/>
</g>

<g transform="matrix( 1, 0, 0, 1, 0,0) ">
<use xlink:href="#Layer3_0_FILL"/>

<use xlink:href="#Layer3_0_1_STROKES"/>
</g>

<g transform="matrix( 1, 0, 0, 1, 0,0) ">
<use xlink:href="#Layer2_0_FILL"/>
</g>

<g transform="matrix( 1, 0, 0, 1, 0,0) ">
<use xlink:href="#Layer1_0_FILL"/>
</g>

<g transform="matrix( 1, 0, 0, 1, 0,0) ">
<use xlink:href="#Layer0_0_FILL"/>
</g>
</svg>
